<mxfile host="app.diagrams.net" modified="2024-01-15T20:02:12.225Z" agent="Mozilla/5.0 (X11; Linux x86_64) AppleWebKit/537.36 (KHTML, like Gecko) Chrome/120.0.0.0 Safari/537.36" etag="optfEzJHL-cfOdBJGn_d" version="22.1.18" type="github">
  <diagram name="Page-1" id="mcigCoj47zqFyfVAbrId">
    <mxGraphModel dx="4018" dy="918" grid="1" gridSize="10" guides="1" tooltips="1" connect="1" arrows="1" fold="1" page="1" pageScale="1" pageWidth="850" pageHeight="1100" math="0" shadow="0">
      <root>
        <mxCell id="0" />
        <mxCell id="1" parent="0" />
        <mxCell id="urNik1szpfD6ViVaPBXt-22" value="" style="edgeStyle=orthogonalEdgeStyle;rounded=0;orthogonalLoop=1;jettySize=auto;html=1;fontFamily=Helvetica;" parent="1" source="2" target="urNik1szpfD6ViVaPBXt-21" edge="1">
          <mxGeometry relative="1" as="geometry" />
        </mxCell>
        <mxCell id="urNik1szpfD6ViVaPBXt-24" value="" style="edgeStyle=orthogonalEdgeStyle;rounded=0;orthogonalLoop=1;jettySize=auto;html=1;fontFamily=Helvetica;" parent="1" source="2" target="urNik1szpfD6ViVaPBXt-23" edge="1">
          <mxGeometry relative="1" as="geometry" />
        </mxCell>
        <mxCell id="2" value="Practical Malware Analysis" style="whiteSpace=wrap;strokeWidth=2;fontFamily=Helvetica;fontStyle=1" parent="1" vertex="1">
          <mxGeometry x="-50" y="20" width="105" height="46" as="geometry" />
        </mxCell>
        <mxCell id="urNik1szpfD6ViVaPBXt-26" value="" style="edgeStyle=orthogonalEdgeStyle;rounded=0;orthogonalLoop=1;jettySize=auto;html=1;fontFamily=Helvetica;" parent="1" source="urNik1szpfD6ViVaPBXt-21" target="urNik1szpfD6ViVaPBXt-25" edge="1">
          <mxGeometry relative="1" as="geometry" />
        </mxCell>
        <mxCell id="urNik1szpfD6ViVaPBXt-21" value="Static Analysis" style="whiteSpace=wrap;html=1;strokeWidth=2;fontFamily=Helvetica;fontStyle=1" parent="1" vertex="1">
          <mxGeometry x="-300" y="100" width="120" height="60" as="geometry" />
        </mxCell>
        <mxCell id="urNik1szpfD6ViVaPBXt-23" value="Dynamic Analysis" style="whiteSpace=wrap;html=1;strokeWidth=2;fontFamily=Helvetica;fontStyle=1" parent="1" vertex="1">
          <mxGeometry x="170" y="100" width="120" height="60" as="geometry" />
        </mxCell>
        <mxCell id="urNik1szpfD6ViVaPBXt-28" value="" style="edgeStyle=orthogonalEdgeStyle;rounded=0;orthogonalLoop=1;jettySize=auto;html=1;fontFamily=Helvetica;" parent="1" source="urNik1szpfD6ViVaPBXt-25" target="urNik1szpfD6ViVaPBXt-27" edge="1">
          <mxGeometry relative="1" as="geometry" />
        </mxCell>
        <mxCell id="urNik1szpfD6ViVaPBXt-25" value="&lt;b&gt;Basic Static Analysis&lt;/b&gt;" style="whiteSpace=wrap;html=1;strokeWidth=2;fontFamily=Helvetica;" parent="1" vertex="1">
          <mxGeometry x="-485" y="200" width="120" height="60" as="geometry" />
        </mxCell>
        <mxCell id="urNik1szpfD6ViVaPBXt-30" value="" style="edgeStyle=orthogonalEdgeStyle;rounded=0;orthogonalLoop=1;jettySize=auto;html=1;fontFamily=Helvetica;" parent="1" source="urNik1szpfD6ViVaPBXt-27" edge="1">
          <mxGeometry relative="1" as="geometry">
            <mxPoint x="-425" y="480" as="targetPoint" />
          </mxGeometry>
        </mxCell>
        <mxCell id="urNik1szpfD6ViVaPBXt-27" value="&lt;b&gt;Anti-Virus Scanning&lt;br&gt;&lt;/b&gt;(Virus Total)" style="whiteSpace=wrap;html=1;strokeWidth=2;fontFamily=Helvetica;" parent="1" vertex="1">
          <mxGeometry x="-485" y="340" width="120" height="60" as="geometry" />
        </mxCell>
        <mxCell id="urNik1szpfD6ViVaPBXt-49" value="" style="edgeStyle=orthogonalEdgeStyle;rounded=0;orthogonalLoop=1;jettySize=auto;html=1;" parent="1" source="urNik1szpfD6ViVaPBXt-31" target="urNik1szpfD6ViVaPBXt-43" edge="1">
          <mxGeometry relative="1" as="geometry" />
        </mxCell>
        <mxCell id="urNik1szpfD6ViVaPBXt-51" value="" style="edgeStyle=orthogonalEdgeStyle;rounded=0;orthogonalLoop=1;jettySize=auto;html=1;" parent="1" source="urNik1szpfD6ViVaPBXt-31" target="urNik1szpfD6ViVaPBXt-50" edge="1">
          <mxGeometry relative="1" as="geometry" />
        </mxCell>
        <mxCell id="urNik1szpfD6ViVaPBXt-31" value="&lt;font style=&quot;font-size: 12px;&quot;&gt;&lt;b&gt;Strings&lt;br&gt;&lt;/b&gt;&lt;em style=&quot;background: transparent; outline: 0px; vertical-align: baseline; margin: 0px; padding: 0px; border: 0px none currentcolor; color: rgb(57, 50, 43); text-align: left;&quot; class=&quot;calibre7&quot;&gt;http://bit.ly/ic4plL&lt;/em&gt;&lt;/font&gt;" style="whiteSpace=wrap;html=1;strokeWidth=2;fontFamily=Helvetica;" parent="1" vertex="1">
          <mxGeometry x="-485" y="482" width="120" height="60" as="geometry" />
        </mxCell>
        <mxCell id="urNik1szpfD6ViVaPBXt-33" value="&lt;b&gt;Packed/Obfuscated&lt;br&gt;&lt;/b&gt;(will include at least GetProcAddress and LoadL)" style="whiteSpace=wrap;html=1;strokeWidth=2;" parent="1" vertex="1">
          <mxGeometry x="-1005" y="481" width="124" height="62" as="geometry" />
        </mxCell>
        <mxCell id="urNik1szpfD6ViVaPBXt-39" value="&lt;b&gt;MD5 / SHA-1&lt;/b&gt; Hashing&lt;br&gt;md5deep / WinMD5" style="whiteSpace=wrap;html=1;strokeWidth=2;fontFamily=Helvetica;" parent="1" vertex="1">
          <mxGeometry x="-320" y="340" width="120" height="60" as="geometry" />
        </mxCell>
        <mxCell id="urNik1szpfD6ViVaPBXt-40" style="edgeStyle=orthogonalEdgeStyle;rounded=0;orthogonalLoop=1;jettySize=auto;html=1;exitX=1;exitY=0.5;exitDx=0;exitDy=0;entryX=-0.05;entryY=0.533;entryDx=0;entryDy=0;entryPerimeter=0;" parent="1" source="urNik1szpfD6ViVaPBXt-27" target="urNik1szpfD6ViVaPBXt-39" edge="1">
          <mxGeometry relative="1" as="geometry" />
        </mxCell>
        <mxCell id="urNik1szpfD6ViVaPBXt-48" value="" style="edgeStyle=orthogonalEdgeStyle;rounded=0;orthogonalLoop=1;jettySize=auto;html=1;" parent="1" source="urNik1szpfD6ViVaPBXt-41" target="urNik1szpfD6ViVaPBXt-33" edge="1">
          <mxGeometry relative="1" as="geometry" />
        </mxCell>
        <mxCell id="urNik1szpfD6ViVaPBXt-41" value="&lt;b&gt;PEiD&lt;br&gt;&lt;/b&gt;https://github.com/packing-box/peid" style="whiteSpace=wrap;html=1;strokeWidth=2;" parent="1" vertex="1">
          <mxGeometry x="-845" y="484" width="120" height="56" as="geometry" />
        </mxCell>
        <mxCell id="urNik1szpfD6ViVaPBXt-47" value="" style="edgeStyle=orthogonalEdgeStyle;rounded=0;orthogonalLoop=1;jettySize=auto;html=1;" parent="1" source="urNik1szpfD6ViVaPBXt-43" target="urNik1szpfD6ViVaPBXt-41" edge="1">
          <mxGeometry relative="1" as="geometry" />
        </mxCell>
        <UserObject label="Unpack with &lt;b&gt;UPX&lt;/b&gt;&lt;br&gt;http://upx.sourceforge.net/" link="http://upx.sourceforge.net/" id="urNik1szpfD6ViVaPBXt-43">
          <mxCell style="whiteSpace=wrap;html=1;strokeWidth=2;" parent="1" vertex="1">
            <mxGeometry x="-685" y="482" width="150" height="60" as="geometry" />
          </mxCell>
        </UserObject>
        <mxCell id="urNik1szpfD6ViVaPBXt-53" value="" style="edgeStyle=orthogonalEdgeStyle;rounded=0;orthogonalLoop=1;jettySize=auto;html=1;" parent="1" source="urNik1szpfD6ViVaPBXt-50" target="urNik1szpfD6ViVaPBXt-52" edge="1">
          <mxGeometry relative="1" as="geometry" />
        </mxCell>
        <mxCell id="4je4lOP4LeVYJgKwdXmT-5" style="edgeStyle=orthogonalEdgeStyle;rounded=0;orthogonalLoop=1;jettySize=auto;html=1;exitX=0.25;exitY=1;exitDx=0;exitDy=0;" edge="1" parent="1" source="urNik1szpfD6ViVaPBXt-50">
          <mxGeometry relative="1" as="geometry">
            <mxPoint x="-490" y="760" as="targetPoint" />
          </mxGeometry>
        </mxCell>
        <mxCell id="urNik1szpfD6ViVaPBXt-50" value="&lt;b&gt;Portable Executable (PE)&lt;br&gt;&lt;/b&gt;Check for headers" style="whiteSpace=wrap;html=1;strokeWidth=2;" parent="1" vertex="1">
          <mxGeometry x="-485" y="622" width="120" height="60" as="geometry" />
        </mxCell>
        <mxCell id="urNik1szpfD6ViVaPBXt-63" style="edgeStyle=orthogonalEdgeStyle;rounded=0;orthogonalLoop=1;jettySize=auto;html=1;exitX=0;exitY=0.5;exitDx=0;exitDy=0;entryX=1;entryY=0.5;entryDx=0;entryDy=0;" parent="1" source="urNik1szpfD6ViVaPBXt-52" target="urNik1szpfD6ViVaPBXt-60" edge="1">
          <mxGeometry relative="1" as="geometry" />
        </mxCell>
        <mxCell id="urNik1szpfD6ViVaPBXt-52" value="&lt;b&gt;Linked Library Functions&lt;/b&gt;" style="whiteSpace=wrap;html=1;strokeWidth=2;" parent="1" vertex="1">
          <mxGeometry x="-655" y="622" width="120" height="60" as="geometry" />
        </mxCell>
        <mxCell id="urNik1szpfD6ViVaPBXt-73" value="" style="edgeStyle=orthogonalEdgeStyle;rounded=0;orthogonalLoop=1;jettySize=auto;html=1;" parent="1" source="urNik1szpfD6ViVaPBXt-54" target="urNik1szpfD6ViVaPBXt-72" edge="1">
          <mxGeometry relative="1" as="geometry" />
        </mxCell>
        <mxCell id="urNik1szpfD6ViVaPBXt-54" value="&lt;b&gt;Static Link&lt;/b&gt;" style="whiteSpace=wrap;html=1;strokeWidth=2;" parent="1" vertex="1">
          <mxGeometry x="-780" y="565.5" width="79" height="39.5" as="geometry" />
        </mxCell>
        <mxCell id="urNik1szpfD6ViVaPBXt-75" value="" style="edgeStyle=orthogonalEdgeStyle;rounded=0;orthogonalLoop=1;jettySize=auto;html=1;" parent="1" source="urNik1szpfD6ViVaPBXt-60" target="urNik1szpfD6ViVaPBXt-74" edge="1">
          <mxGeometry relative="1" as="geometry" />
        </mxCell>
        <mxCell id="urNik1szpfD6ViVaPBXt-60" value="&lt;b&gt;Runtime Link&lt;/b&gt;" style="whiteSpace=wrap;html=1;strokeWidth=2;" parent="1" vertex="1">
          <mxGeometry x="-780" y="632.25" width="79" height="39.5" as="geometry" />
        </mxCell>
        <mxCell id="urNik1szpfD6ViVaPBXt-65" value="&lt;b&gt;Dynamic Link&lt;/b&gt;" style="whiteSpace=wrap;html=1;strokeWidth=2;" parent="1" vertex="1">
          <mxGeometry x="-780" y="690" width="79" height="39.5" as="geometry" />
        </mxCell>
        <mxCell id="urNik1szpfD6ViVaPBXt-70" value="" style="curved=1;endArrow=classic;html=1;rounded=0;exitX=0.157;exitY=-0.014;exitDx=0;exitDy=0;exitPerimeter=0;" parent="1" source="urNik1szpfD6ViVaPBXt-52" edge="1">
          <mxGeometry width="50" height="50" relative="1" as="geometry">
            <mxPoint x="-630" y="610" as="sourcePoint" />
            <mxPoint x="-700" y="590" as="targetPoint" />
            <Array as="points">
              <mxPoint x="-670" y="600" />
            </Array>
          </mxGeometry>
        </mxCell>
        <mxCell id="urNik1szpfD6ViVaPBXt-71" value="" style="curved=1;endArrow=classic;html=1;rounded=0;exitX=0.25;exitY=1;exitDx=0;exitDy=0;" parent="1" source="urNik1szpfD6ViVaPBXt-52" edge="1">
          <mxGeometry width="50" height="50" relative="1" as="geometry">
            <mxPoint x="-637" y="739" as="sourcePoint" />
            <mxPoint x="-701" y="708" as="targetPoint" />
            <Array as="points">
              <mxPoint x="-671" y="718" />
            </Array>
          </mxGeometry>
        </mxCell>
        <mxCell id="urNik1szpfD6ViVaPBXt-72" value="Common in *Nix" style="whiteSpace=wrap;html=1;strokeWidth=2;" parent="1" vertex="1">
          <mxGeometry x="-900" y="565.25" width="76.5" height="38.25" as="geometry" />
        </mxCell>
        <mxCell id="urNik1szpfD6ViVaPBXt-77" value="" style="edgeStyle=orthogonalEdgeStyle;rounded=0;orthogonalLoop=1;jettySize=auto;html=1;" parent="1" source="urNik1szpfD6ViVaPBXt-74" target="urNik1szpfD6ViVaPBXt-76" edge="1">
          <mxGeometry relative="1" as="geometry" />
        </mxCell>
        <mxCell id="urNik1szpfD6ViVaPBXt-74" value="Common in Packed/&lt;br style=&quot;font-size: 8px;&quot;&gt;Obfuscated Malware" style="whiteSpace=wrap;html=1;strokeWidth=2;fontSize=8;" parent="1" vertex="1">
          <mxGeometry x="-904" y="631" width="80.5" height="40.25" as="geometry" />
        </mxCell>
        <mxCell id="urNik1szpfD6ViVaPBXt-76" value="Header: GetProcAddress; LoadLibrary; LdrGetProcAddress; LdrLoadDLL&lt;br&gt;are commonly found" style="whiteSpace=wrap;html=1;fontSize=8;strokeWidth=2;" parent="1" vertex="1">
          <mxGeometry x="-1060" y="621.125" width="120" height="60" as="geometry" />
        </mxCell>
        <mxCell id="urNik1szpfD6ViVaPBXt-79" value="DependencyWalker&lt;br&gt;lists Dynamically Linked Functions" style="whiteSpace=wrap;html=1;strokeWidth=2;fontSize=8;" parent="1" vertex="1">
          <mxGeometry x="-905" y="689" width="80.5" height="40.25" as="geometry" />
        </mxCell>
        <mxCell id="urNik1szpfD6ViVaPBXt-81" value="&lt;table style=&quot;background: transparent; border-collapse: collapse; border-spacing: 0px; font-size: 1em; outline: 0px; text-indent: 0px; vertical-align: baseline; margin: 10px auto; padding: 0px; border: 0.5pt solid currentcolor; font-family: serif, DejaVuSerif;&quot; class=&quot;calibre15&quot; summary=&quot;Common DLLs&quot;&gt;&lt;thead style=&quot;background: transparent; font-size: 1em; outline: 0px; vertical-align: baseline; margin: 0px; padding: 0px; border: 0px none currentcolor;&quot; class=&quot;calibre18&quot;&gt;&lt;tr style=&quot;background: transparent; font-size: 1em; outline: 0px; vertical-align: baseline; margin: 0px; padding: 0px; border-width: 0px 0px 1px; border-style: none none solid; border-color: currentcolor currentcolor rgb(195, 195, 195);&quot; class=&quot;calibre19&quot;&gt;&lt;th style=&quot;background: transparent; font-family: sans-serif, DejaVuSans; font-size: 0.83333em; outline: 0px; text-align: left; vertical-align: baseline; margin: 0px; padding: 0.3em; border-width: 2px 0.5pt 2px 0px; border-style: solid solid solid none; border-color: rgb(157, 157, 157) currentcolor;&quot; class=&quot;calibre20&quot; valign=&quot;top&quot;&gt;&lt;p style=&quot;background: transparent; font-size: 1em; outline: 0px; vertical-align: baseline; margin: 8px 0px 0px; padding: 0px; border: 0px none currentcolor;&quot; class=&quot;calibre8&quot;&gt;DLL&lt;/p&gt;&lt;/th&gt;&lt;th style=&quot;background: transparent; font-family: sans-serif, DejaVuSans; font-size: 0.83333em; outline: 0px; text-align: left; vertical-align: baseline; margin: 0px; padding: 0.3em; border-width: 2px 0px; border-style: solid none; border-color: rgb(157, 157, 157) currentcolor;&quot; class=&quot;calibre21&quot; valign=&quot;top&quot;&gt;&lt;p style=&quot;background: transparent; font-size: 1em; outline: 0px; vertical-align: baseline; margin: 8px 0px 0px; padding: 0px; border: 0px none currentcolor;&quot; class=&quot;calibre8&quot;&gt;Description&lt;/p&gt;&lt;/th&gt;&lt;/tr&gt;&lt;/thead&gt;&lt;tbody style=&quot;background: transparent; font-size: 1em; outline: 0px; vertical-align: baseline; margin: 0px; padding: 0px; border: 0px none currentcolor;&quot; class=&quot;calibre22&quot;&gt;&lt;tr style=&quot;background: transparent; font-size: 1em; outline: 0px; vertical-align: baseline; margin: 0px; padding: 0px; border-width: 0px 0px 1px; border-style: none none solid; border-color: currentcolor currentcolor rgb(195, 195, 195);&quot; class=&quot;calibre19&quot;&gt;&lt;td style=&quot;background: transparent; font-size: 0.83333em; outline: 0px; text-align: left; vertical-align: baseline; margin: 0px; padding: 0.3em; border-width: 0px 0.5pt 0.5pt 0px; border-style: none solid solid none; border-color: currentcolor;&quot; class=&quot;calibre23&quot;&gt;&lt;p style=&quot;background: transparent; font-size: 1em; outline: 0px; vertical-align: baseline; margin: 8px 0px 0px; padding: 0px; border: 0px none currentcolor;&quot; class=&quot;calibre8&quot;&gt;&lt;em style=&quot;background: transparent; font-size: 1em; outline: 0px; vertical-align: baseline; margin: 0px; padding: 0px; border: 0px none currentcolor;&quot; class=&quot;calibre7&quot;&gt;Kernel32.dll&lt;/em&gt;&lt;/p&gt;&lt;/td&gt;&lt;td style=&quot;background: transparent; font-size: 0.83333em; outline: 0px; text-align: left; vertical-align: baseline; margin: 0px; padding: 0.3em; border-width: 0px 0px 0.5pt; border-style: none none solid; border-color: currentcolor;&quot; class=&quot;calibre24&quot;&gt;&lt;p style=&quot;background: transparent; font-size: 1em; outline: 0px; vertical-align: baseline; margin: 8px 0px 0px; padding: 0px; border: 0px none currentcolor;&quot; class=&quot;calibre8&quot;&gt;This is a very common DLL that contains core functionality, such as access and manipulation of memory, files, and hardware.&lt;/p&gt;&lt;/td&gt;&lt;/tr&gt;&lt;tr style=&quot;background: rgb(241, 246, 252); font-size: 1em; outline: 0px; vertical-align: baseline; margin: 0px; padding: 0px; border-width: 0px 0px 1px; border-style: none none solid; border-color: currentcolor currentcolor rgb(195, 195, 195);&quot; class=&quot;calibre25&quot;&gt;&lt;td style=&quot;background: transparent; font-size: 0.83333em; outline: 0px; text-align: left; vertical-align: baseline; margin: 0px; padding: 0.3em; border-width: 0px 0.5pt 0.5pt 0px; border-style: none solid solid none; border-color: currentcolor;&quot; class=&quot;calibre23&quot;&gt;&lt;p style=&quot;background: transparent; font-size: 1em; outline: 0px; vertical-align: baseline; margin: 8px 0px 0px; padding: 0px; border: 0px none currentcolor;&quot; class=&quot;calibre8&quot;&gt;&lt;span style=&quot;background: transparent; font-size: 1em; outline: 0px; vertical-align: baseline; margin: 0px; padding: 0px; border: 0px none currentcolor;&quot; class=&quot;calibre&quot;&gt;&lt;em style=&quot;background: transparent; font-size: 1em; outline: 0px; vertical-align: baseline; margin: 0px; padding: 0px; border: 0px none currentcolor;&quot; class=&quot;calibre7&quot;&gt;Advapi32.dll&lt;/em&gt;&lt;/span&gt;&lt;/p&gt;&lt;/td&gt;&lt;td style=&quot;background: transparent; font-size: 0.83333em; outline: 0px; text-align: left; vertical-align: baseline; margin: 0px; padding: 0.3em; border-width: 0px 0px 0.5pt; border-style: none none solid; border-color: currentcolor;&quot; class=&quot;calibre24&quot;&gt;&lt;p style=&quot;background: transparent; font-size: 1em; outline: 0px; vertical-align: baseline; margin: 8px 0px 0px; padding: 0px; border: 0px none currentcolor;&quot; class=&quot;calibre8&quot;&gt;This DLL provides access to advanced core Windows components such as the Service Manager and Registry.&lt;/p&gt;&lt;/td&gt;&lt;/tr&gt;&lt;tr style=&quot;background: transparent; font-size: 1em; outline: 0px; vertical-align: baseline; margin: 0px; padding: 0px; border-width: 0px 0px 1px; border-style: none none solid; border-color: currentcolor currentcolor rgb(195, 195, 195);&quot; class=&quot;calibre19&quot;&gt;&lt;td style=&quot;background: transparent; font-size: 0.83333em; outline: 0px; text-align: left; vertical-align: baseline; margin: 0px; padding: 0.3em; border-width: 0px 0.5pt 0.5pt 0px; border-style: none solid solid none; border-color: currentcolor;&quot; class=&quot;calibre23&quot;&gt;&lt;p style=&quot;background: transparent; font-size: 1em; outline: 0px; vertical-align: baseline; margin: 8px 0px 0px; padding: 0px; border: 0px none currentcolor;&quot; class=&quot;calibre8&quot;&gt;&lt;span style=&quot;background: transparent; font-size: 1em; outline: 0px; vertical-align: baseline; margin: 0px; padding: 0px; border: 0px none currentcolor;&quot; class=&quot;calibre&quot;&gt;&lt;em style=&quot;background: transparent; font-size: 1em; outline: 0px; vertical-align: baseline; margin: 0px; padding: 0px; border: 0px none currentcolor;&quot; class=&quot;calibre7&quot;&gt;User32.dll&lt;/em&gt;&lt;/span&gt;&lt;/p&gt;&lt;/td&gt;&lt;td style=&quot;background: transparent; font-size: 0.83333em; outline: 0px; text-align: left; vertical-align: baseline; margin: 0px; padding: 0.3em; border-width: 0px 0px 0.5pt; border-style: none none solid; border-color: currentcolor;&quot; class=&quot;calibre24&quot;&gt;&lt;p style=&quot;background: transparent; font-size: 1em; outline: 0px; vertical-align: baseline; margin: 8px 0px 0px; padding: 0px; border: 0px none currentcolor;&quot; class=&quot;calibre8&quot;&gt;This DLL contains all the user-interface components, such as buttons, scroll bars, and components for controlling and responding to user actions.&lt;/p&gt;&lt;/td&gt;&lt;/tr&gt;&lt;tr style=&quot;background: rgb(241, 246, 252); font-size: 1em; outline: 0px; vertical-align: baseline; margin: 0px; padding: 0px; border-width: 0px 0px 1px; border-style: none none solid; border-color: currentcolor currentcolor rgb(195, 195, 195);&quot; class=&quot;calibre25&quot;&gt;&lt;td style=&quot;background: transparent; font-size: 0.83333em; outline: 0px; text-align: left; vertical-align: baseline; margin: 0px; padding: 0.3em; border-width: 0px 0.5pt 0.5pt 0px; border-style: none solid solid none; border-color: currentcolor;&quot; class=&quot;calibre23&quot;&gt;&lt;p style=&quot;background: transparent; font-size: 1em; outline: 0px; vertical-align: baseline; margin: 8px 0px 0px; padding: 0px; border: 0px none currentcolor;&quot; class=&quot;calibre8&quot;&gt;&lt;span style=&quot;background: transparent; font-size: 1em; outline: 0px; vertical-align: baseline; margin: 0px; padding: 0px; border: 0px none currentcolor;&quot; class=&quot;calibre&quot;&gt;&lt;em style=&quot;background: transparent; font-size: 1em; outline: 0px; vertical-align: baseline; margin: 0px; padding: 0px; border: 0px none currentcolor;&quot; class=&quot;calibre7&quot;&gt;Gdi32.dll&lt;/em&gt;&lt;/span&gt;&lt;/p&gt;&lt;/td&gt;&lt;td style=&quot;background: transparent; font-size: 0.83333em; outline: 0px; text-align: left; vertical-align: baseline; margin: 0px; padding: 0.3em; border-width: 0px 0px 0.5pt; border-style: none none solid; border-color: currentcolor;&quot; class=&quot;calibre24&quot;&gt;&lt;p style=&quot;background: transparent; font-size: 1em; outline: 0px; vertical-align: baseline; margin: 8px 0px 0px; padding: 0px; border: 0px none currentcolor;&quot; class=&quot;calibre8&quot;&gt;This DLL contains functions for displaying and manipulating graphics.&lt;/p&gt;&lt;/td&gt;&lt;/tr&gt;&lt;tr style=&quot;background: transparent; font-size: 1em; outline: 0px; vertical-align: baseline; margin: 0px; padding: 0px; border-width: 0px 0px 1px; border-style: none none solid; border-color: currentcolor currentcolor rgb(195, 195, 195);&quot; class=&quot;calibre19&quot;&gt;&lt;td style=&quot;background: transparent; font-size: 0.83333em; outline: 0px; text-align: left; vertical-align: baseline; margin: 0px; padding: 0.3em; border-width: 0px 0.5pt 0.5pt 0px; border-style: none solid solid none; border-color: currentcolor;&quot; class=&quot;calibre23&quot;&gt;&lt;p style=&quot;background: transparent; font-size: 1em; outline: 0px; vertical-align: baseline; margin: 8px 0px 0px; padding: 0px; border: 0px none currentcolor;&quot; class=&quot;calibre8&quot;&gt;&lt;span style=&quot;background: transparent; font-size: 1em; outline: 0px; vertical-align: baseline; margin: 0px; padding: 0px; border: 0px none currentcolor;&quot; class=&quot;calibre&quot;&gt;&lt;em style=&quot;background: transparent; font-size: 1em; outline: 0px; vertical-align: baseline; margin: 0px; padding: 0px; border: 0px none currentcolor;&quot; class=&quot;calibre7&quot;&gt;Ntdll.dll&lt;/em&gt;&lt;/span&gt;&lt;/p&gt;&lt;/td&gt;&lt;td style=&quot;background: transparent; font-size: 0.83333em; outline: 0px; text-align: left; vertical-align: baseline; margin: 0px; padding: 0.3em; border-width: 0px 0px 0.5pt; border-style: none none solid; border-color: currentcolor;&quot; class=&quot;calibre24&quot;&gt;&lt;p style=&quot;background: transparent; font-size: 1em; outline: 0px; vertical-align: baseline; margin: 8px 0px 0px; padding: 0px; border: 0px none currentcolor;&quot; class=&quot;calibre8&quot;&gt;This DLL is the interface to the Windows kernel. Executables generally do not import this file directly, although it is always imported indirectly by&amp;nbsp;&lt;span style=&quot;background: transparent; font-size: 1em; outline: 0px; vertical-align: baseline; margin: 0px; padding: 0px; border: 0px none currentcolor;&quot; class=&quot;calibre&quot;&gt;&lt;em style=&quot;background: transparent; font-size: 1em; outline: 0px; vertical-align: baseline; margin: 0px; padding: 0px; border: 0px none currentcolor;&quot; class=&quot;calibre7&quot;&gt;Kernel32.dll&lt;/em&gt;&lt;/span&gt;.&amp;nbsp;&lt;/p&gt;&lt;p style=&quot;background: transparent; font-size: 1em; outline: 0px; vertical-align: baseline; margin: 8px 0px 0px; padding: 0px; border: 0px none currentcolor;&quot; class=&quot;calibre8&quot;&gt;If an executable imports this file, it means that the author intended to use functionality not normally available to Windows programs.&amp;nbsp;&lt;/p&gt;&lt;p style=&quot;background: transparent; font-size: 1em; outline: 0px; vertical-align: baseline; margin: 8px 0px 0px; padding: 0px; border: 0px none currentcolor;&quot; class=&quot;calibre8&quot;&gt;Some tasks, such as hiding functionality or manipulating processes, will use this interface.&lt;/p&gt;&lt;/td&gt;&lt;/tr&gt;&lt;tr style=&quot;background: rgb(241, 246, 252); font-size: 1em; outline: 0px; vertical-align: baseline; margin: 0px; padding: 0px; border-width: 0px 0px 1px; border-style: none none solid; border-color: currentcolor currentcolor rgb(195, 195, 195);&quot; class=&quot;calibre25&quot;&gt;&lt;td style=&quot;background: transparent; font-size: 0.83333em; outline: 0px; text-align: left; vertical-align: baseline; margin: 0px; padding: 0.3em; border-width: 0px 0.5pt 0.5pt 0px; border-style: none solid solid none; border-color: currentcolor;&quot; class=&quot;calibre23&quot;&gt;&lt;p style=&quot;background: transparent; font-size: 1em; outline: 0px; vertical-align: baseline; margin: 8px 0px 0px; padding: 0px; border: 0px none currentcolor;&quot; class=&quot;calibre8&quot;&gt;&lt;span style=&quot;background: transparent; font-size: 1em; outline: 0px; vertical-align: baseline; margin: 0px; padding: 0px; border: 0px none currentcolor;&quot; class=&quot;calibre&quot;&gt;&lt;em style=&quot;background: transparent; font-size: 1em; outline: 0px; vertical-align: baseline; margin: 0px; padding: 0px; border: 0px none currentcolor;&quot; class=&quot;calibre7&quot;&gt;WSock32.dll&lt;/em&gt;&lt;/span&gt;&amp;nbsp;and&amp;nbsp;&lt;span style=&quot;background: transparent; font-size: 1em; outline: 0px; vertical-align: baseline; margin: 0px; padding: 0px; border: 0px none currentcolor;&quot; class=&quot;calibre&quot;&gt;&lt;em style=&quot;background: transparent; font-size: 1em; outline: 0px; vertical-align: baseline; margin: 0px; padding: 0px; border: 0px none currentcolor;&quot; class=&quot;calibre7&quot;&gt;Ws2_32.dll&lt;/em&gt;&lt;/span&gt;&lt;/p&gt;&lt;/td&gt;&lt;td style=&quot;background: transparent; font-size: 0.83333em; outline: 0px; text-align: left; vertical-align: baseline; margin: 0px; padding: 0.3em; border-width: 0px 0px 0.5pt; border-style: none none solid; border-color: currentcolor;&quot; class=&quot;calibre24&quot;&gt;&lt;p style=&quot;background: transparent; font-size: 1em; outline: 0px; vertical-align: baseline; margin: 8px 0px 0px; padding: 0px; border: 0px none currentcolor;&quot; class=&quot;calibre8&quot;&gt;These are networking DLLs. A program that accesses either of these most likely connects to a network or performs network-related tasks.&lt;/p&gt;&lt;/td&gt;&lt;/tr&gt;&lt;tr style=&quot;background: transparent; font-size: 1em; outline: 0px; vertical-align: baseline; margin: 0px; padding: 0px; border-width: 0px 0px 1px; border-style: none none solid; border-color: currentcolor currentcolor rgb(195, 195, 195);&quot; class=&quot;calibre19&quot;&gt;&lt;td style=&quot;background: transparent; font-size: 0.83333em; outline: 0px; text-align: left; vertical-align: baseline; margin: 0px; padding: 0.3em; border-width: 0px 0.5pt 0px 0px; border-style: none solid none none; border-color: currentcolor;&quot; class=&quot;calibre26&quot;&gt;&lt;p style=&quot;background: transparent; font-size: 1em; outline: 0px; vertical-align: baseline; margin: 8px 0px 0px; padding: 0px; border: 0px none currentcolor;&quot; class=&quot;calibre8&quot;&gt;&lt;span style=&quot;background: transparent; font-size: 1em; outline: 0px; vertical-align: baseline; margin: 0px; padding: 0px; border: 0px none currentcolor;&quot; class=&quot;calibre&quot;&gt;&lt;em style=&quot;background: transparent; font-size: 1em; outline: 0px; vertical-align: baseline; margin: 0px; padding: 0px; border: 0px none currentcolor;&quot; class=&quot;calibre7&quot;&gt;Wininet.dll&lt;/em&gt;&lt;/span&gt;&lt;/p&gt;&lt;/td&gt;&lt;td style=&quot;background: transparent; font-size: 0.83333em; outline: 0px; text-align: left; vertical-align: baseline; margin: 0px; padding: 0.3em; border: 0px none currentcolor;&quot; class=&quot;calibre27&quot;&gt;&lt;p style=&quot;background: transparent; font-size: 1em; outline: 0px; vertical-align: baseline; margin: 8px 0px 0px; padding: 0px; border: 0px none currentcolor;&quot; class=&quot;calibre8&quot;&gt;This DLL contains higher-level networking functions that implement protocols such as FTP, HTTP, and NTP.&lt;/p&gt;&lt;/td&gt;&lt;/tr&gt;&lt;/tbody&gt;&lt;/table&gt;" style="text;html=1;align=center;verticalAlign=middle;resizable=0;points=[];autosize=1;strokeColor=none;fillColor=none;" parent="1" vertex="1">
          <mxGeometry x="-1880" y="580" width="800" height="290" as="geometry" />
        </mxCell>
        <mxCell id="urNik1szpfD6ViVaPBXt-82" style="edgeStyle=orthogonalEdgeStyle;rounded=0;orthogonalLoop=1;jettySize=auto;html=1;exitX=0;exitY=0.5;exitDx=0;exitDy=0;entryX=1.006;entryY=0.445;entryDx=0;entryDy=0;entryPerimeter=0;" parent="1" source="urNik1szpfD6ViVaPBXt-79" target="urNik1szpfD6ViVaPBXt-81" edge="1">
          <mxGeometry relative="1" as="geometry" />
        </mxCell>
        <mxCell id="4je4lOP4LeVYJgKwdXmT-8" value="" style="edgeStyle=orthogonalEdgeStyle;rounded=0;orthogonalLoop=1;jettySize=auto;html=1;" edge="1" parent="1" source="4je4lOP4LeVYJgKwdXmT-3" target="4je4lOP4LeVYJgKwdXmT-7">
          <mxGeometry relative="1" as="geometry" />
        </mxCell>
        <mxCell id="4je4lOP4LeVYJgKwdXmT-3" value="&lt;b&gt;Imported Functions&lt;br&gt;&lt;/b&gt;github.com/hrossoo/dotfiles/blob/&lt;br&gt;main/Common_Windows_Functions" style="whiteSpace=wrap;html=1;strokeWidth=2;" vertex="1" parent="1">
          <mxGeometry x="-692.5" y="762" width="195" height="60" as="geometry" />
        </mxCell>
        <mxCell id="4je4lOP4LeVYJgKwdXmT-7" value="&lt;b&gt;Exported Functions&lt;/b&gt;&lt;br&gt;Identify with DependencyWalker" style="whiteSpace=wrap;html=1;strokeWidth=2;" vertex="1" parent="1">
          <mxGeometry x="-845" y="762" width="120" height="60" as="geometry" />
        </mxCell>
      </root>
    </mxGraphModel>
  </diagram>
</mxfile>
